<?xml version="1.0" encoding="UTF-8" standalone="no"?><!DOCTYPE svg PUBLIC "-//W3C//DTD SVG 1.1//EN" "http://www.w3.org/Graphics/SVG/1.1/DTD/svg11.dtd"><svg width="100%" height="100%" viewBox="0 0 91 85" version="1.1" xmlns="http://www.w3.org/2000/svg" xmlns:xlink="http://www.w3.org/1999/xlink" xml:space="preserve" xmlns:serif="http://www.serif.com/" style="fill-rule:evenodd;clip-rule:evenodd;stroke-linejoin:round;stroke-miterlimit:2;"><g><path d="M53.774,32.786l3.174,-3.249c-2.866,-2.934 -6.756,-4.75 -11.09,-4.855l7.916,8.104Z" style="fill:#801524;fill-rule:nonzero;"/><path d="M34.052,52.974c2.867,2.934 6.757,4.751 11.09,4.855l-7.916,-8.103l-3.174,3.248Z" style="fill:#801524;fill-rule:nonzero;"/><path d="M91,41.238c0,0 -20.37,-25.253 -45.483,-25.253c-7.984,0 -15.49,2.55 -22.042,6.043c-0.068,0.034 -0.103,0.07 -0.17,0.07c-0.24,0.14 -0.478,0.244 -0.717,0.383c-0.17,0.105 -0.341,0.176 -0.512,0.28c-0.136,0.07 -0.273,0.139 -0.409,0.244c-0.205,0.105 -0.409,0.245 -0.648,0.385c-0.103,0.07 -0.171,0.105 -0.273,0.174c-0.546,0.315 -1.092,0.664 -1.638,1.014c-11.567,7.299 -19.108,16.66 -19.108,16.66c0,0 20.37,25.254 45.483,25.254c7.984,-0 15.491,-2.55 22.042,-6.044c0.035,-0.034 0.103,-0.069 0.137,-0.069c0.273,-0.14 0.512,-0.279 0.784,-0.419c0.137,-0.07 0.273,-0.14 0.41,-0.245c0.171,-0.105 0.376,-0.209 0.546,-0.314c0.17,-0.105 0.341,-0.21 0.512,-0.279c0.136,-0.071 0.272,-0.175 0.409,-0.245c0.205,-0.105 0.409,-0.245 0.614,-0.35c0.034,0 0.034,-0.034 0.069,-0.034c0.307,-0.175 0.579,-0.349 0.852,-0.524c11.568,-7.335 19.142,-16.731 19.142,-16.731Zm-22.622,13.133l-28.15,-28.815c-1.604,0.558 -3.104,1.397 -4.435,2.409l28.184,28.851c-5.597,2.83 -11.908,4.786 -18.46,4.786c-17.469,-0 -32.892,-13.972 -39,-20.364c3.207,-3.318 8.905,-8.731 16.139,-13.133l28.15,28.816c1.604,-0.558 3.105,-1.397 4.435,-2.41l-28.218,-28.85c5.597,-2.795 11.908,-4.786 18.46,-4.786c17.47,-0 32.892,13.972 39.001,20.363c-3.174,3.354 -8.906,8.732 -16.106,13.133Z" style="fill:#801524;fill-rule:nonzero;"/></g></svg>